<svg xmlns="http://www.w3.org/2000/svg" xmlns:xlink="http://www.w3.org/1999/xlink" width="500" zoomAndPan="magnify" viewBox="0 0 375 374.999991" height="500" preserveAspectRatio="xMidYMid meet" version="1.0"><defs><g/><clipPath id="e7b54852fb"><path d="M 119.308594 140 L 188 140 L 188 200.019531 L 119.308594 200.019531 Z M 119.308594 140 " clip-rule="nonzero"/></clipPath><clipPath id="6571c096eb"><path d="M 187 108.519531 L 255.808594 108.519531 L 255.808594 169 L 187 169 Z M 187 108.519531 " clip-rule="nonzero"/></clipPath></defs><g clip-path="url(#e7b54852fb)"><path fill="#0652e9" d="M 165.230469 182.664062 L 165.230469 190.964844 L 127.636719 173.5 L 127.636719 166.765625 L 165.230469 149.296875 L 165.230469 157.601562 L 136.800781 170.054688 L 136.800781 170.210938 Z M 187.558594 140.074219 L 124.6875 140.074219 C 121.71875 140.074219 119.3125 142.480469 119.3125 145.449219 L 119.3125 194.816406 C 119.3125 197.785156 121.71875 200.191406 124.6875 200.191406 L 170.105469 200.191406 L 187.558594 140.074219 " fill-opacity="1" fill-rule="nonzero"/></g><g clip-path="url(#6571c096eb)"><path fill="#38b6ff" d="M 247.378906 142.210938 L 209.785156 159.441406 L 209.785156 151.136719 L 238.839844 138.683594 L 238.839844 138.527344 L 209.785156 126.074219 L 209.785156 117.773438 L 247.378906 135.003906 Z M 205.011719 108.546875 L 187.558594 168.664062 L 250.328125 168.664062 C 253.292969 168.664062 255.699219 166.257812 255.699219 163.289062 L 255.699219 113.921875 C 255.699219 110.953125 253.292969 108.546875 250.328125 108.546875 L 205.011719 108.546875 " fill-opacity="1" fill-rule="nonzero"/></g><g fill="#000000" fill-opacity="1"><g transform="translate(76.405814, 236.784858)"><g><path d="M 12.074219 0.28125 C 16.238281 0.28125 19.84375 -2.066406 21.628906 -5.496094 L 17.636719 -7.558594 C 16.625 -5.566406 14.558594 -4.234375 12.074219 -4.234375 C 8.539062 -4.234375 5.84375 -6.964844 5.84375 -10.5 C 5.84375 -14.035156 8.539062 -16.761719 12.074219 -16.761719 C 14.558594 -16.761719 16.625 -15.433594 17.636719 -13.4375 L 21.628906 -15.503906 C 19.84375 -18.933594 16.238281 -21.277344 12.074219 -21.277344 C 6.125 -21.277344 1.292969 -16.449219 1.292969 -10.5 C 1.292969 -4.550781 6.125 0.28125 12.074219 0.28125 Z M 12.074219 0.28125 "/></g></g></g><g fill="#000000" fill-opacity="1"><g transform="translate(100.174698, 236.784858)"><g><path d="M 12.074219 0.28125 C 18.058594 0.28125 22.851562 -4.550781 22.851562 -10.5 C 22.851562 -16.449219 18.058594 -21.277344 12.074219 -21.277344 C 6.125 -21.277344 1.292969 -16.449219 1.292969 -10.5 C 1.292969 -4.550781 6.125 0.28125 12.074219 0.28125 Z M 12.074219 -4.234375 C 8.539062 -4.234375 5.84375 -6.964844 5.84375 -10.5 C 5.84375 -14.035156 8.539062 -16.761719 12.074219 -16.761719 C 15.644531 -16.761719 18.339844 -14.035156 18.339844 -10.5 C 18.339844 -6.964844 15.644531 -4.234375 12.074219 -4.234375 Z M 12.074219 -4.234375 "/></g></g></g><g fill="#000000" fill-opacity="1"><g transform="translate(125.588345, 236.784858)"><g><path d="M 20.367188 -21 L 13.683594 -6.472656 L 7.070312 -21 L 2.066406 -21 L 2.066406 0 L 6.683594 0 L 6.683594 -12.527344 L 12.355469 0 L 15.011719 0 L 20.71875 -12.492188 L 20.71875 0 L 25.335938 0 L 25.335938 -21 Z M 20.367188 -21 "/></g></g></g><g fill="#000000" fill-opacity="1"><g transform="translate(154.221547, 236.784858)"><g><path d="M 10.988281 -21 L 2.066406 -21 L 2.066406 0 L 6.683594 0 L 6.683594 -8.503906 L 10.988281 -8.503906 C 14.523438 -8.503906 17.253906 -11.128906 17.253906 -14.664062 C 17.253906 -18.164062 14.523438 -21 10.988281 -21 Z M 10.253906 -12.320312 L 6.683594 -12.320312 L 6.683594 -16.9375 L 10.253906 -16.9375 C 11.722656 -16.9375 12.84375 -15.992188 12.84375 -14.628906 C 12.84375 -13.230469 11.722656 -12.320312 10.253906 -12.320312 Z M 10.253906 -12.320312 "/></g></g></g><g fill="#000000" fill-opacity="1"><g transform="translate(172.846141, 236.784858)"><g><path d="M 12.074219 0.28125 C 18.058594 0.28125 22.851562 -4.550781 22.851562 -10.5 C 22.851562 -16.449219 18.058594 -21.277344 12.074219 -21.277344 C 6.125 -21.277344 1.292969 -16.449219 1.292969 -10.5 C 1.292969 -4.550781 6.125 0.28125 12.074219 0.28125 Z M 12.074219 -4.234375 C 8.539062 -4.234375 5.84375 -6.964844 5.84375 -10.5 C 5.84375 -14.035156 8.539062 -16.761719 12.074219 -16.761719 C 15.644531 -16.761719 18.339844 -14.035156 18.339844 -10.5 C 18.339844 -6.964844 15.644531 -4.234375 12.074219 -4.234375 Z M 12.074219 -4.234375 "/></g></g></g><g fill="#000000" fill-opacity="1"><g transform="translate(198.259793, 236.784858)"><g><path d="M 17.148438 -21 L 17.148438 -7.105469 L 6.824219 -21 L 2.066406 -21 L 2.066406 0 L 6.683594 0 L 6.683594 -13.929688 L 16.972656 0 L 21.734375 0 L 21.734375 -21 Z M 17.148438 -21 "/></g></g></g><g fill="#000000" fill-opacity="1"><g transform="translate(223.323497, 236.784858)"><g><path d="M 14.875 -16.9375 L 14.875 -21 L 2.238281 -21 L 2.238281 0 L 14.875 0 L 14.875 -4.058594 L 6.859375 -4.058594 L 6.859375 -8.46875 L 13.71875 -8.46875 L 13.71875 -12.527344 L 6.859375 -12.527344 L 6.859375 -16.9375 Z M 14.875 -16.9375 "/></g></g></g><g fill="#000000" fill-opacity="1"><g transform="translate(240.863249, 236.784858)"><g><path d="M 17.148438 -21 L 17.148438 -7.105469 L 6.824219 -21 L 2.066406 -21 L 2.066406 0 L 6.683594 0 L 6.683594 -13.929688 L 16.972656 0 L 21.734375 0 L 21.734375 -21 Z M 17.148438 -21 "/></g></g></g><g fill="#000000" fill-opacity="1"><g transform="translate(265.926952, 236.784858)"><g><path d="M 15.011719 -21 L -0.175781 -21 L -0.175781 -16.902344 L 5.144531 -16.902344 L 5.144531 0 L 9.730469 0 L 9.730469 -16.902344 L 15.011719 -16.902344 Z M 15.011719 -21 "/></g></g></g><g fill="#000000" fill-opacity="1"><g transform="translate(281.996894, 236.784858)"><g><path d="M 8.539062 0.28125 C 12.457031 0.28125 15.785156 -2.03125 15.785156 -5.949219 C 15.785156 -13.71875 6.125 -11.792969 6.125 -15.433594 C 6.125 -16.625 7.035156 -17.183594 8.152344 -17.183594 C 9.34375 -17.183594 10.535156 -16.519531 11.582031 -15.363281 L 14.664062 -18.304688 C 13.125 -20.089844 10.777344 -21.277344 8.1875 -21.277344 C 4.863281 -21.277344 1.46875 -19.285156 1.46875 -15.082031 C 1.46875 -7.945312 11.164062 -9.660156 11.164062 -5.984375 C 11.164062 -4.828125 10.183594 -4.058594 8.574219 -4.058594 C 6.648438 -4.058594 5.144531 -5.144531 4.375 -6.789062 L 0.558594 -4.410156 C 1.925781 -1.785156 4.863281 0.28125 8.539062 0.28125 Z M 8.539062 0.28125 "/></g></g></g><g fill="#000000" fill-opacity="1"><g transform="translate(156.327735, 262.387982)"><g><path d="M 7.070312 0.160156 C 9.34375 0.160156 11.324219 -1.089844 12.375 -2.929688 L 11.285156 -3.542969 C 10.472656 -2.078125 8.890625 -1.109375 7.070312 -1.109375 C 4.394531 -1.109375 2.238281 -3.246094 2.238281 -5.941406 C 2.238281 -8.632812 4.394531 -10.769531 7.070312 -10.769531 C 8.890625 -10.769531 10.472656 -9.800781 11.285156 -8.335938 L 12.375 -8.949219 C 11.324219 -10.789062 9.34375 -12.039062 7.070312 -12.039062 C 3.703125 -12.039062 0.96875 -9.304688 0.96875 -5.941406 C 0.96875 -2.574219 3.703125 0.160156 7.070312 0.160156 Z M 7.070312 0.160156 "/></g></g></g><g fill="#000000" fill-opacity="1"><g transform="translate(174.657244, 262.387982)"><g><path d="M 7.070312 0.160156 C 10.453125 0.160156 13.167969 -2.574219 13.167969 -5.941406 C 13.167969 -9.304688 10.453125 -12.039062 7.070312 -12.039062 C 3.703125 -12.039062 0.96875 -9.304688 0.96875 -5.941406 C 0.96875 -2.574219 3.703125 0.160156 7.070312 0.160156 Z M 7.070312 -1.109375 C 4.394531 -1.109375 2.238281 -3.246094 2.238281 -5.941406 C 2.238281 -8.632812 4.394531 -10.769531 7.070312 -10.769531 C 9.761719 -10.769531 11.898438 -8.632812 11.898438 -5.941406 C 11.898438 -3.246094 9.761719 -1.109375 7.070312 -1.109375 Z M 7.070312 -1.109375 "/></g></g></g><g fill="#000000" fill-opacity="1"><g transform="translate(194.114787, 262.387982)"><g><path d="M 8.613281 -11.878906 L 5.007812 -1.625 L 1.40625 -11.878906 L 0 -11.878906 L 4.296875 0 L 5.703125 0 L 10 -11.878906 Z M 8.613281 -11.878906 "/></g></g></g><g fill="#000000" fill-opacity="1"><g transform="translate(209.416421, 262.387982)"><g><path d="M 8.039062 -10.652344 L 8.039062 -11.878906 L 1.542969 -11.878906 L 1.542969 0 L 8.039062 0 L 8.039062 -1.226562 L 2.8125 -1.226562 L 2.8125 -5.328125 L 7.367188 -5.328125 L 7.367188 -6.554688 L 2.8125 -6.554688 L 2.8125 -10.652344 Z M 8.039062 -10.652344 "/></g></g></g></svg>